<?xml version="1.0" standalone="no"?>
<!DOCTYPE svg PUBLIC "-//W3C//DTD SVG 20001102//EN"
"http://www.w3.org/TR/2000/CR-SVG-20001102/DTD/svg-20001102.dtd">
<svg width="731" height="512"
	xmlns:sodipodi="http://sodipodi.sourceforge.net/DTD/sodipodi-0.dtd">
<desc>wmf2svg</desc>
<polygon points="730.926880,511.926849 
	0.073100,511.926849 0.073100,0.073143 730.926880,0.073143 730.926880,511.926849 "
	style="fill-opacity:1.0; fill-rule:evenodd; fill:lavender; stroke:none" />
<polygon points="20.541100,27.574858 
	20.248699,40.448002 19.225300,49.371429 18.055700,54.491428 17.470900,56.100571 
	17.763300,56.100571 18.786699,56.100571 20.248699,55.954285 22.441700,55.954285 
	25.073299,55.807999 28.143499,55.661713 31.652300,55.515430 35.453499,55.369144 
	39.693298,55.222858 44.371700,55.076572 49.196301,54.930286 54.167099,54.637714 
	59.430302,54.491428 64.839699,54.198856 70.395302,54.052570 76.097099,53.759998 
	81.652702,53.613716 87.354500,53.467430 92.910103,53.174858 98.465698,53.028572 
	103.875099,52.736000 109.138298,52.589714 114.109100,52.443428 118.933701,52.297142 
	123.465897,52.150856 127.705704,52.004570 131.506897,51.858284 134.869507,51.712002 
	137.939697,51.712002 140.425095,51.565716 142.471893,51.565716 143.933899,51.565716 
	143.349106,49.225143 142.471893,43.520000 141.740906,36.790855 142.179504,30.793142 
	20.541100,27.574858 "
	style="fill-opacity:1.0; fill-rule:evenodd; fill:thistle; stroke:none" />
<polygon points="145.980698,62.976002 
	144.080093,75.849144 143.787704,84.772568 144.226303,89.892570 144.518707,91.501717 
	144.226303,91.501717 143.202896,91.501717 141.740906,91.355431 139.694107,91.355431 
	137.062500,91.209145 133.992294,91.062859 130.483505,90.916573 126.682297,90.770287 
	122.442497,90.624001 117.910301,90.477715 113.085701,90.331429 107.968697,90.038857 
	102.851700,89.892570 97.442299,89.599998 91.886703,89.453712 86.331100,89.161140 
	80.629303,89.014854 75.073700,88.868568 69.518097,88.575996 63.962502,88.429718 
	58.699299,88.137146 53.436100,87.990860 48.465302,87.844574 43.640701,87.698288 
	39.108501,87.552002 35.014900,87.405716 31.213699,87.259430 27.704901,87.113144 
	24.780899,87.113144 22.295500,86.966858 20.248699,86.966858 18.786699,86.966858 
	19.079100,86.381714 19.663900,84.626289 20.541100,82.139427 21.564501,79.067429 
	22.441700,75.702858 23.318899,72.338287 23.757500,69.120003 23.757500,66.340569 
	145.980698,62.976002 "
	style="fill-opacity:1.0; fill-rule:evenodd; fill:thistle; stroke:none" />
<polygon points="142.033295,97.499428 
	142.179504,110.080002 143.202896,118.564575 144.372498,123.538284 144.957306,125.147430 
	144.664902,125.147430 143.641495,125.147430 142.179504,125.147430 140.132706,125.147430 
	137.501099,125.001144 134.430893,125.001144 130.922104,125.001144 127.120903,124.854858 
	122.881104,124.854858 118.348900,124.854858 113.670502,124.708572 108.553497,124.708572 
	103.290298,124.562286 98.027100,124.562286 92.471497,124.562286 86.915901,124.416000 
	81.360298,124.416000 75.804703,124.269714 70.102898,124.269714 64.693497,124.123428 
	59.284100,124.123428 54.167099,124.123428 49.196301,123.977142 44.371700,123.977142 
	39.839500,123.977142 35.745899,123.830856 31.798500,123.830856 28.435900,123.830856 
	25.365700,123.830856 22.880301,123.830856 20.833500,123.830856 19.371500,123.830856 
	19.371500,120.905144 19.225300,114.176003 18.786699,106.130287 17.763300,99.693718 
	142.033295,97.499428 "
	style="fill-opacity:1.0; fill-rule:evenodd; fill:silver; stroke:none" />
<polygon points="143.056702,131.145142 
	143.202896,142.994293 144.226303,151.039993 145.249695,155.574860 145.834503,157.037720 
	145.542099,157.037720 144.518707,157.037720 142.910507,156.891434 140.863693,156.891434 
	138.232101,156.891434 135.015701,156.745148 131.506897,156.598862 127.559502,156.598862 
	123.173500,156.452576 118.495102,156.306290 113.670502,156.160004 108.407303,156.013718 
	103.144096,155.867432 97.588501,155.867432 92.032898,155.721146 86.331100,155.574860 
	80.483101,155.428574 74.781303,155.282288 69.079498,155.136002 63.377701,154.989716 
	57.968300,154.843430 52.558899,154.697144 47.441898,154.550858 42.617298,154.550858 
	37.938900,154.404572 33.699100,154.258286 29.751699,154.258286 26.242901,154.258286 
	23.172701,154.112000 20.541100,154.112000 18.494301,154.112000 17.032301,154.112000 
	17.324699,153.526855 17.909500,151.771423 18.932899,149.284576 19.956301,146.358856 
	20.979700,142.994293 21.710699,139.629715 22.295500,136.411423 22.295500,133.778290 
	143.056702,131.145142 "
	style="fill-opacity:1.0; fill-rule:evenodd; fill:silver; stroke:none" />
<polygon points="20.541100,296.155426 
	20.248699,309.028564 19.225300,317.951996 18.055700,323.071991 17.470900,324.681152 
	17.763300,324.681152 18.786699,324.681152 20.248699,324.534851 22.441700,324.534851 
	25.073299,324.388580 28.143499,324.242279 31.652300,324.096008 35.453499,323.949707 
	39.693298,323.803436 44.371700,323.657135 49.196301,323.510864 54.167099,323.218292 
	59.430302,323.071991 64.839699,322.779419 70.395302,322.633148 76.097099,322.340576 
	81.652702,322.194275 87.354500,322.048004 92.910103,321.755432 98.465698,321.609131 
	103.875099,321.316559 109.138298,321.170288 114.109100,321.023987 118.933701,320.877716 
	123.465897,320.731415 127.705704,320.585144 131.506897,320.438843 134.869507,320.292572 
	137.939697,320.292572 140.425095,320.146271 142.471893,320.146271 143.933899,320.146271 
	143.349106,317.805725 142.471893,312.100586 141.740906,305.371429 142.179504,299.373718 
	20.541100,296.155426 "
	style="fill-opacity:1.0; fill-rule:evenodd; fill:lightsteelblue; stroke:none" />
<polygon points="145.980698,196.973709 
	144.080093,209.846863 143.787704,218.770279 144.226303,223.890289 144.518707,225.499435 
	130.044907,224.914291 117.325500,224.329147 106.214302,223.890289 96.857498,223.451431 
	88.816498,223.012573 82.237503,222.573715 76.974297,222.281143 72.734497,221.988571 
	69.664299,221.695999 67.325104,221.549713 65.863098,221.403427 65.132103,221.110855 
	64.985901,220.964569 65.132103,220.964569 65.863098,220.818283 66.594101,220.818283 
	67.617500,220.671997 68.494698,220.671997 69.371902,220.671997 69.956703,220.671997 
	70.249100,220.671997 70.102898,220.671997 69.371902,220.671997 68.056099,220.818283 
	65.863098,220.818283 62.646702,220.818283 58.553101,220.818283 53.289902,220.818283 
	46.857101,220.964569 38.962299,220.964569 29.751699,220.964569 18.786699,220.964569 
	19.079100,220.379425 19.663900,218.623993 20.541100,216.137146 21.564501,212.918854 
	22.441700,209.554291 23.318899,206.189713 23.757500,202.971436 23.757500,200.192001 
	145.980698,196.973709 "
	style="fill-opacity:1.0; fill-rule:evenodd; fill:lightsteelblue; stroke:none" />
<polygon points="142.033295,231.350861 
	142.179504,243.931427 143.202896,252.562286 144.372498,257.536011 144.957306,259.145142 
	144.664902,259.145142 143.641495,259.145142 142.179504,259.145142 140.132706,259.145142 
	137.501099,258.998871 134.430893,258.998871 130.922104,258.998871 127.120903,258.852570 
	122.881104,258.852570 118.348900,258.852570 113.670502,258.706299 108.553497,258.706299 
	103.290298,258.559998 98.027100,258.559998 92.471497,258.413727 86.915901,258.413727 
	81.360298,258.267426 75.804703,258.267426 70.102898,258.121155 64.693497,258.121155 
	59.284100,258.121155 54.167099,257.974854 49.196301,257.974854 44.371700,257.974854 
	39.839500,257.828583 35.745899,257.828583 31.798500,257.828583 28.435900,257.828583 
	25.365700,257.828583 22.880301,257.828583 20.833500,257.828583 19.371500,257.828583 
	19.371500,254.902863 19.225300,248.027435 18.786699,239.981720 17.763300,233.545135 
	142.033295,231.350861 "
	style="fill-opacity:1.0; fill-rule:evenodd; fill:lightsteelblue; stroke:none" />
<polygon points="142.033295,425.618286 
	142.179504,438.198853 143.202896,446.829712 144.372498,451.803436 144.957306,453.412567 
	144.664902,453.412567 143.641495,453.412567 142.179504,453.412567 140.132706,453.412567 
	137.501099,453.266296 134.430893,453.266296 130.922104,453.266296 127.120903,453.119995 
	122.881104,453.119995 118.348900,453.119995 113.670502,452.973724 108.553497,452.973724 
	103.290298,452.827423 98.027100,452.827423 92.471497,452.681152 86.915901,452.681152 
	81.360298,452.534851 75.804703,452.534851 70.102898,452.388580 64.693497,452.388580 
	59.284100,452.388580 54.167099,452.242279 49.196301,452.242279 44.371700,452.242279 
	39.839500,452.096008 35.745899,452.096008 31.798500,452.096008 28.435900,452.096008 
	25.365700,452.096008 22.880301,452.096008 20.833500,452.096008 19.371500,452.096008 
	19.371500,449.170288 19.225300,442.294861 18.786699,434.249146 17.763300,427.812561 
	142.033295,425.618286 "
	style="fill-opacity:1.0; fill-rule:evenodd; fill:thistle; stroke:none" />
<polygon points="142.033295,458.678864 
	141.887100,470.381714 142.325699,477.257141 142.764297,480.329132 143.056702,481.060577 
	142.764297,481.060577 141.740906,481.060577 140.278900,481.060577 138.232101,481.060577 
	135.746704,481.060577 132.676498,481.060577 129.313904,481.206848 125.512703,481.206848 
	121.419098,481.206848 116.886902,481.206848 112.208504,481.206848 107.237701,481.206848 
	102.120697,481.353149 96.857498,481.353149 91.448097,481.353149 86.038696,481.353149 
	80.483101,481.353149 74.927498,481.499420 69.518097,481.499420 64.108704,481.499420 
	58.845501,481.499420 53.728500,481.645721 48.757702,481.645721 44.079300,481.645721 
	39.693298,481.645721 35.453499,481.791992 31.798500,481.791992 28.289700,481.791992 
	25.365700,481.791992 22.880301,481.938293 20.833500,481.938293 19.371500,481.938293 
	19.371500,479.597717 19.225300,473.746277 18.786699,466.870850 17.763300,460.873138 
	142.033295,458.678864 "
	style="fill-opacity:1.0; fill-rule:evenodd; fill:thistle; stroke:none" />
<polygon points="142.033295,162.742859 
	142.179504,175.323425 143.202896,183.954285 144.372498,188.927994 144.957306,190.537140 
	144.664902,190.537140 143.641495,190.537140 142.179504,190.537140 140.132706,190.537140 
	137.501099,190.390854 134.430893,190.390854 130.922104,190.390854 127.120903,190.244568 
	122.881104,190.244568 118.348900,190.244568 113.670502,190.098282 108.553497,190.098282 
	103.290298,189.951996 98.027100,189.951996 92.471497,189.805710 86.915901,189.805710 
	81.360298,189.659424 75.804703,189.659424 70.102898,189.513138 64.693497,189.513138 
	59.284100,189.513138 54.167099,189.366852 49.196301,189.366852 44.371700,189.366852 
	39.839500,189.220566 35.745899,189.220566 31.798500,189.220566 28.435900,189.220566 
	25.365700,189.220566 22.880301,189.220566 20.833500,189.220566 19.371500,189.220566 
	19.371500,186.294861 19.225300,179.419434 18.786699,171.373718 17.763300,164.937149 
	142.033295,162.742859 "
	style="fill-opacity:1.0; fill-rule:evenodd; fill:silver; stroke:none" />
<polygon points="143.056702,264.996582 
	143.202896,276.845703 144.226303,284.891418 145.249695,289.426300 145.834503,290.889130 
	145.542099,290.889130 144.518707,290.889130 142.910507,290.889130 140.863693,290.742859 
	138.232101,290.742859 135.015701,290.596558 131.506897,290.596558 127.559502,290.450287 
	123.173500,290.303986 118.495102,290.157715 113.670502,290.157715 108.407303,290.011414 
	103.144096,289.865143 97.588501,289.718872 92.032898,289.572571 86.331100,289.426300 
	80.483101,289.279999 74.781303,289.133728 69.079498,288.987427 63.377701,288.987427 
	57.968300,288.841156 52.558899,288.694855 47.441898,288.548584 42.617298,288.548584 
	37.938900,288.402283 33.699100,288.256012 29.751699,288.256012 26.242901,288.256012 
	23.172701,288.109711 20.541100,288.109711 18.494301,288.109711 17.032301,288.109711 
	17.324699,287.524567 17.909500,285.769135 18.932899,283.282288 19.956301,280.356567 
	20.979700,276.992004 21.710699,273.627441 22.295500,270.409149 22.295500,267.776001 
	143.056702,264.996582 "
	style="fill-opacity:1.0; fill-rule:evenodd; fill:lightsteelblue; stroke:none" />
<polygon points="20.541100,395.337128 
	20.248699,408.210297 19.225300,416.987427 18.055700,422.107422 17.470900,423.716583 
	17.763300,423.716583 18.786699,423.716583 20.248699,423.570282 22.441700,423.570282 
	25.073299,423.424011 28.143499,423.277710 31.652300,423.131439 35.453499,422.985138 
	39.693298,422.838867 44.371700,422.692566 49.196301,422.546295 54.167099,422.399994 
	59.430302,422.107422 64.839699,421.961151 70.395302,421.668579 76.097099,421.522278 
	81.652702,421.376007 87.354500,421.083435 92.910103,420.937134 98.465698,420.644562 
	103.875099,420.498291 109.138298,420.351990 114.109100,420.205719 118.933701,420.059418 
	123.465897,419.913147 127.705704,419.766846 131.506897,419.620575 134.869507,419.474274 
	137.939697,419.474274 140.425095,419.328003 142.471893,419.328003 143.933899,419.328003 
	143.349106,416.987427 142.471893,411.282288 141.740906,404.553131 142.179504,398.555420 
	20.541100,395.337128 "
	style="fill-opacity:1.0; fill-rule:evenodd; fill:thistle; stroke:none" />
<polygon points="142.033295,329.801147 
	142.179504,342.235443 143.202896,350.866272 144.372498,355.839996 144.957306,357.449158 
	144.664902,357.449158 143.641495,357.449158 142.179504,357.449158 140.132706,357.449158 
	137.501099,357.302856 134.430893,357.302856 130.922104,357.302856 127.120903,357.156586 
	122.881104,357.156586 118.348900,357.156586 113.670502,357.010284 108.553497,357.010284 
	103.290298,356.864014 98.027100,356.864014 92.471497,356.717712 86.915901,356.717712 
	81.360298,356.571442 75.804703,356.571442 70.102898,356.425140 64.693497,356.425140 
	59.284100,356.425140 54.167099,356.278870 49.196301,356.278870 44.371700,356.278870 
	39.839500,356.132568 35.745899,356.132568 31.798500,356.132568 28.435900,356.132568 
	25.365700,356.132568 22.880301,356.132568 20.833500,356.132568 19.371500,356.132568 
	19.371500,353.206848 19.225300,346.331421 18.786699,338.285706 17.763300,331.995422 
	142.033295,329.801147 "
	style="fill-opacity:1.0; fill-rule:evenodd; fill:silver; stroke:none" />
<polygon points="143.056702,364.178284 
	143.202896,376.027435 144.226303,383.926849 145.249695,388.461700 145.834503,389.924561 
	145.542099,389.924561 144.518707,389.924561 142.910507,389.924561 140.863693,389.778290 
	138.232101,389.778290 135.015701,389.631989 131.506897,389.631989 127.559502,389.485718 
	123.173500,389.339417 118.495102,389.193146 113.670502,389.193146 108.407303,389.046844 
	103.144096,388.900574 97.588501,388.754272 92.032898,388.608002 86.331100,388.461700 
	80.483101,388.315430 74.781303,388.169128 69.079498,388.022858 63.377701,388.022858 
	57.968300,387.876556 52.558899,387.730286 47.441898,387.584015 42.617298,387.584015 
	37.938900,387.437714 33.699100,387.291443 29.751699,387.291443 26.242901,387.291443 
	23.172701,387.145142 20.541100,387.145142 18.494301,387.145142 17.032301,387.145142 
	17.324699,386.559998 17.909500,384.804565 18.932899,382.317719 19.956301,379.391998 
	20.979700,376.027435 21.710699,372.662872 22.295500,369.444580 22.295500,366.811432 
	143.056702,364.178284 "
	style="fill-opacity:1.0; fill-rule:evenodd; fill:silver; stroke:none" />
<polygon points="588.966675,27.574858 
	588.674316,40.448002 587.650879,49.371429 586.481323,54.491428 585.896484,56.100571 
	586.188904,56.100571 587.212280,56.100571 588.674316,55.954285 590.867310,55.954285 
	593.352722,55.807999 596.422913,55.661713 599.931702,55.515430 603.879089,55.369144 
	608.118896,55.222858 612.651123,55.076572 617.475708,54.930286 622.592712,54.637714 
	627.855896,54.491428 633.265320,54.198856 638.820923,54.052570 644.376526,53.759998 
	650.078308,53.613716 655.633911,53.467430 661.335693,53.174858 666.891296,53.028572 
	672.154480,52.736000 677.417725,52.589714 682.534729,52.443428 687.359314,52.297142 
	691.745300,52.150856 695.985107,52.004570 699.932495,51.858284 703.295105,51.712002 
	706.365295,51.712002 708.850708,51.565716 710.897522,51.565716 712.359497,51.565716 
	711.774719,49.225143 710.897522,43.520000 710.166504,36.790855 710.605103,30.793142 
	588.966675,27.574858 "
	style="fill-opacity:1.0; fill-rule:evenodd; fill:thistle; stroke:none" />
<polygon points="714.260071,62.976002 
	712.505676,75.849144 712.213318,84.772568 712.651917,89.892570 712.944275,91.501717 
	712.651917,91.501717 711.628479,91.501717 710.166504,91.355431 708.119690,91.355431 
	705.488098,91.209145 702.417908,91.062859 698.909119,90.916573 695.107910,90.770287 
	690.868103,90.624001 686.335876,90.477715 681.511292,90.331429 676.394287,90.038857 
	671.277283,89.892570 665.867920,89.599998 660.312317,89.453712 654.756714,89.161140 
	649.054871,89.014854 643.499329,88.868568 637.943726,88.575996 632.388123,88.429718 
	627.124878,88.137146 621.861694,87.990860 616.890930,87.844574 612.066284,87.698288 
	607.534119,87.552002 603.440491,87.405716 599.639282,87.259430 596.130493,87.113144 
	593.206482,87.113144 590.721130,86.966858 588.674316,86.966858 587.212280,86.966858 
	587.504700,86.381714 588.089478,84.626289 588.966675,82.139427 589.990112,79.067429 
	590.867310,75.702858 591.744507,72.338287 592.183105,69.120003 592.183105,66.340569 
	714.260071,62.976002 "
	style="fill-opacity:1.0; fill-rule:evenodd; fill:thistle; stroke:none" />
<polygon points="710.458923,97.499428 
	710.605103,110.080002 711.628479,118.564575 712.798096,123.538284 713.382874,125.147430 
	713.090515,125.147430 712.067078,125.147430 710.605103,125.147430 708.558289,125.147430 
	705.926697,125.001144 702.856506,125.001144 699.347717,125.001144 695.546509,124.854858 
	691.306702,124.854858 686.774475,124.854858 681.949890,124.708572 676.979126,124.708572 
	671.715881,124.562286 666.452698,124.562286 660.897095,124.562286 655.341492,124.416000 
	649.785889,124.416000 644.084106,124.269714 638.528503,124.269714 633.119080,124.123428 
	627.709717,124.123428 622.446472,124.123428 617.475708,123.977142 612.797302,123.977142 
	608.265076,123.977142 604.025330,123.830856 600.224121,123.830856 596.715271,123.830856 
	593.791321,123.830856 591.159729,123.830856 589.112915,123.830856 587.650879,123.830856 
	587.650879,120.905144 587.650879,114.176003 587.212280,106.130287 586.188904,99.693718 
	710.458923,97.499428 "
	style="fill-opacity:1.0; fill-rule:evenodd; fill:silver; stroke:none" />
<polygon points="711.482300,131.145142 
	711.628479,142.994293 712.651917,151.039993 713.675293,155.574860 714.260071,157.037720 
	713.967712,157.037720 712.944275,157.037720 711.336121,156.891434 709.289307,156.891434 
	706.657715,156.891434 703.441284,156.745148 699.932495,156.598862 695.985107,156.598862 
	691.599121,156.452576 686.920715,156.306290 682.096130,156.160004 676.832886,156.013718 
	671.569702,155.867432 666.014099,155.867432 660.312317,155.721146 654.610474,155.574860 
	648.908691,155.428574 643.060730,155.282288 637.358887,155.136002 631.803284,154.989716 
	626.247681,154.843430 620.984497,154.697144 615.867493,154.550858 610.896729,154.550858 
	606.364502,154.404572 602.124695,154.258286 598.177307,154.258286 594.668518,154.258286 
	591.598328,154.112000 588.966675,154.112000 586.919922,154.112000 585.457886,154.112000 
	585.750305,153.526855 586.335083,151.771423 587.358521,149.284576 588.381897,146.358856 
	589.405273,142.994293 590.136292,139.629715 590.721130,136.411423 590.721130,133.778290 
	711.482300,131.145142 "
	style="fill-opacity:1.0; fill-rule:evenodd; fill:silver; stroke:none" />
<polygon points="588.966675,296.155426 
	588.674316,309.028564 587.650879,317.951996 586.481323,323.071991 585.896484,324.681152 
	586.188904,324.681152 587.212280,324.681152 588.674316,324.534851 590.867310,324.534851 
	593.352722,324.388580 596.422913,324.242279 599.931702,324.096008 603.879089,323.949707 
	608.118896,323.803436 612.651123,323.657135 617.475708,323.510864 622.592712,323.218292 
	627.855896,323.071991 633.265320,322.779419 638.820923,322.633148 644.376526,322.340576 
	650.078308,322.194275 655.633911,322.048004 661.335693,321.755432 666.891296,321.609131 
	672.154480,321.316559 677.417725,321.170288 682.534729,321.023987 687.359314,320.877716 
	691.745300,320.731415 695.985107,320.585144 699.932495,320.438843 703.295105,320.292572 
	706.365295,320.292572 708.850708,320.146271 710.897522,320.146271 712.359497,320.146271 
	711.774719,317.805725 710.897522,312.100586 710.166504,305.371429 710.605103,299.373718 
	588.966675,296.155426 "
	style="fill-opacity:1.0; fill-rule:evenodd; fill:lightsteelblue; stroke:none" />
<polygon points="714.260071,196.973709 
	712.505676,209.846863 712.213318,218.770279 712.651917,223.890289 712.944275,225.499435 
	698.470520,224.914291 685.751099,224.329147 674.639893,223.890289 665.283081,223.451431 
	657.242126,223.012573 650.663086,222.573715 645.399902,222.281143 641.160095,221.988571 
	638.089905,221.695999 635.750671,221.549713 634.288696,221.403427 633.557678,221.110855 
	633.411499,220.964569 633.557678,220.964569 634.288696,220.818283 635.019714,220.818283 
	636.043091,220.671997 636.920288,220.671997 637.797485,220.671997 638.382324,220.671997 
	638.674683,220.671997 638.528503,220.671997 637.797485,220.671997 636.481689,220.818283 
	634.288696,220.818283 631.072327,220.818283 626.978699,220.818283 621.715515,220.818283 
	615.282715,220.964569 607.387878,220.964569 598.177307,220.964569 587.212280,220.964569 
	587.504700,220.379425 588.089478,218.623993 588.966675,216.137146 589.990112,212.918854 
	590.867310,209.554291 591.744507,206.189713 592.183105,202.971436 592.183105,200.192001 
	714.260071,196.973709 "
	style="fill-opacity:1.0; fill-rule:evenodd; fill:lightsteelblue; stroke:none" />
<polygon points="710.458923,231.350861 
	710.605103,243.931427 711.628479,252.562286 712.798096,257.536011 713.382874,259.145142 
	713.090515,259.145142 712.067078,259.145142 710.605103,259.145142 708.558289,259.145142 
	705.926697,258.998871 702.856506,258.998871 699.347717,258.998871 695.546509,258.852570 
	691.306702,258.852570 686.774475,258.852570 681.949890,258.706299 676.979126,258.706299 
	671.715881,258.559998 666.452698,258.559998 660.897095,258.413727 655.341492,258.413727 
	649.785889,258.267426 644.084106,258.267426 638.528503,258.121155 633.119080,258.121155 
	627.709717,258.121155 622.446472,257.974854 617.475708,257.974854 612.797302,257.974854 
	608.265076,257.828583 604.025330,257.828583 600.224121,257.828583 596.715271,257.828583 
	593.791321,257.828583 591.159729,257.828583 589.112915,257.828583 587.650879,257.828583 
	587.650879,254.902863 587.650879,248.027435 587.212280,239.981720 586.188904,233.545135 
	710.458923,231.350861 "
	style="fill-opacity:1.0; fill-rule:evenodd; fill:lightsteelblue; stroke:none" />
<polygon points="710.458923,425.618286 
	710.605103,438.198853 711.628479,446.829712 712.798096,451.803436 713.382874,453.412567 
	713.090515,453.412567 712.067078,453.412567 710.605103,453.412567 708.558289,453.412567 
	705.926697,453.266296 702.856506,453.266296 699.347717,453.266296 695.546509,453.119995 
	691.306702,453.119995 686.774475,453.119995 681.949890,452.973724 676.979126,452.973724 
	671.715881,452.827423 666.452698,452.827423 660.897095,452.681152 655.341492,452.681152 
	649.785889,452.534851 644.084106,452.534851 638.528503,452.388580 633.119080,452.388580 
	627.709717,452.388580 622.446472,452.242279 617.475708,452.242279 612.797302,452.242279 
	608.265076,452.096008 604.025330,452.096008 600.224121,452.096008 596.715271,452.096008 
	593.791321,452.096008 591.159729,452.096008 589.112915,452.096008 587.650879,452.096008 
	587.650879,449.170288 587.650879,442.294861 587.212280,434.249146 586.188904,427.812561 
	710.458923,425.618286 "
	style="fill-opacity:1.0; fill-rule:evenodd; fill:thistle; stroke:none" />
<polygon points="710.458923,458.678864 
	710.312683,470.381714 710.751282,477.257141 711.189880,480.329132 711.482300,481.060577 
	711.189880,481.060577 710.166504,481.060577 708.704529,481.060577 706.657715,481.060577 
	704.172302,481.060577 701.102112,481.060577 697.739502,481.206848 693.938293,481.206848 
	689.844727,481.206848 685.312500,481.206848 680.634094,481.206848 675.663330,481.206848 
	670.546326,481.353149 665.283081,481.353149 659.873718,481.353149 654.464294,481.353149 
	648.908691,481.353149 643.353088,481.499420 637.943726,481.499420 632.534302,481.499420 
	627.271118,481.499420 622.007874,481.645721 617.183289,481.645721 612.358704,481.645721 
	607.972717,481.645721 603.879089,481.791992 600.077881,481.791992 596.715271,481.791992 
	593.645081,481.791992 591.159729,481.938293 589.112915,481.938293 587.650879,481.938293 
	587.650879,479.597717 587.650879,473.746277 587.212280,466.870850 586.188904,460.873138 
	710.458923,458.678864 "
	style="fill-opacity:1.0; fill-rule:evenodd; fill:thistle; stroke:none" />
<polygon points="710.458923,162.742859 
	710.605103,175.323425 711.628479,183.954285 712.798096,188.927994 713.382874,190.537140 
	713.090515,190.537140 712.067078,190.537140 710.605103,190.537140 708.558289,190.537140 
	705.926697,190.390854 702.856506,190.390854 699.347717,190.390854 695.546509,190.244568 
	691.306702,190.244568 686.774475,190.244568 681.949890,190.098282 676.979126,190.098282 
	671.715881,189.951996 666.452698,189.951996 660.897095,189.805710 655.341492,189.805710 
	649.785889,189.659424 644.084106,189.659424 638.528503,189.513138 633.119080,189.513138 
	627.709717,189.513138 622.446472,189.366852 617.475708,189.366852 612.797302,189.366852 
	608.265076,189.220566 604.025330,189.220566 600.224121,189.220566 596.715271,189.220566 
	593.791321,189.220566 591.159729,189.220566 589.112915,189.220566 587.650879,189.220566 
	587.650879,186.294861 587.650879,179.419434 587.212280,171.373718 586.188904,164.937149 
	710.458923,162.742859 "
	style="fill-opacity:1.0; fill-rule:evenodd; fill:silver; stroke:none" />
<polygon points="711.482300,264.996582 
	711.628479,276.845703 712.651917,284.891418 713.675293,289.426300 714.260071,290.889130 
	713.967712,290.889130 712.944275,290.889130 711.336121,290.889130 709.289307,290.742859 
	706.657715,290.742859 703.441284,290.596558 699.932495,290.596558 695.985107,290.450287 
	691.599121,290.303986 686.920715,290.157715 682.096130,290.157715 676.832886,290.011414 
	671.569702,289.865143 666.014099,289.718872 660.312317,289.572571 654.610474,289.426300 
	648.908691,289.279999 643.060730,289.133728 637.358887,288.987427 631.803284,288.987427 
	626.247681,288.841156 620.984497,288.694855 615.867493,288.548584 610.896729,288.548584 
	606.364502,288.402283 602.124695,288.256012 598.177307,288.256012 594.668518,288.256012 
	591.598328,288.109711 588.966675,288.109711 586.919922,288.109711 585.457886,288.109711 
	585.750305,287.524567 586.335083,285.769135 587.358521,283.282288 588.381897,280.356567 
	589.405273,276.992004 590.136292,273.627441 590.721130,270.409149 590.721130,267.776001 
	711.482300,264.996582 "
	style="fill-opacity:1.0; fill-rule:evenodd; fill:lightsteelblue; stroke:none" />
<polygon points="588.966675,395.337128 
	588.674316,408.210297 587.650879,416.987427 586.481323,422.107422 585.896484,423.716583 
	586.188904,423.716583 587.212280,423.716583 588.674316,423.570282 590.867310,423.570282 
	593.352722,423.424011 596.422913,423.277710 599.931702,423.131439 603.879089,422.985138 
	608.118896,422.838867 612.651123,422.692566 617.475708,422.546295 622.592712,422.399994 
	627.855896,422.107422 633.265320,421.961151 638.820923,421.668579 644.376526,421.522278 
	650.078308,421.376007 655.633911,421.083435 661.335693,420.937134 666.891296,420.644562 
	672.154480,420.498291 677.417725,420.351990 682.534729,420.205719 687.359314,420.059418 
	691.745300,419.913147 695.985107,419.766846 699.932495,419.620575 703.295105,419.474274 
	706.365295,419.474274 708.850708,419.328003 710.897522,419.328003 712.359497,419.328003 
	711.774719,416.987427 710.897522,411.282288 710.166504,404.553131 710.605103,398.555420 
	588.966675,395.337128 "
	style="fill-opacity:1.0; fill-rule:evenodd; fill:thistle; stroke:none" />
<polygon points="710.458923,329.801147 
	710.605103,342.235443 711.628479,350.866272 712.798096,355.839996 713.382874,357.449158 
	713.090515,357.449158 712.067078,357.449158 710.605103,357.449158 708.558289,357.449158 
	705.926697,357.302856 702.856506,357.302856 699.347717,357.302856 695.546509,357.156586 
	691.306702,357.156586 686.774475,357.156586 681.949890,357.010284 676.979126,357.010284 
	671.715881,356.864014 666.452698,356.864014 660.897095,356.717712 655.341492,356.717712 
	649.785889,356.571442 644.084106,356.571442 638.528503,356.425140 633.119080,356.425140 
	627.709717,356.425140 622.446472,356.278870 617.475708,356.278870 612.797302,356.278870 
	608.265076,356.132568 604.025330,356.132568 600.224121,356.132568 596.715271,356.132568 
	593.791321,356.132568 591.159729,356.132568 589.112915,356.132568 587.650879,356.132568 
	587.650879,353.206848 587.650879,346.331421 587.212280,338.285706 586.188904,331.995422 
	710.458923,329.801147 "
	style="fill-opacity:1.0; fill-rule:evenodd; fill:silver; stroke:none" />
<polygon points="711.482300,364.178284 
	711.628479,376.027435 712.651917,383.926849 713.675293,388.461700 714.260071,389.924561 
	713.967712,389.924561 712.944275,389.924561 711.336121,389.924561 709.289307,389.778290 
	706.657715,389.778290 703.441284,389.631989 699.932495,389.631989 695.985107,389.485718 
	691.599121,389.339417 686.920715,389.193146 682.096130,389.193146 676.832886,389.046844 
	671.569702,388.900574 666.014099,388.754272 660.312317,388.608002 654.610474,388.461700 
	648.908691,388.315430 643.060730,388.169128 637.358887,388.022858 631.803284,388.022858 
	626.247681,387.876556 620.984497,387.730286 615.867493,387.584015 610.896729,387.584015 
	606.364502,387.437714 602.124695,387.291443 598.177307,387.291443 594.668518,387.291443 
	591.598328,387.145142 588.966675,387.145142 586.919922,387.145142 585.457886,387.145142 
	585.750305,386.559998 586.335083,384.804565 587.358521,382.317719 588.381897,379.391998 
	589.405273,376.027435 590.136292,372.662872 590.721130,369.444580 590.721130,366.811432 
	711.482300,364.178284 "
	style="fill-opacity:1.0; fill-rule:evenodd; fill:silver; stroke:none" />
<polygon points="283.847290,25.380571 
	283.993500,38.253716 285.163086,47.177143 286.186493,52.297142 286.771301,53.906284 
	286.478912,53.906284 285.455505,53.906284 283.993500,53.759998 281.800507,53.759998 
	279.315094,53.613716 276.244904,53.467430 272.736115,53.321144 268.788696,53.174858 
	264.548889,53.028572 260.016693,52.882286 255.192093,52.736000 250.075104,52.443428 
	244.811905,52.297142 239.402496,52.004570 233.846893,51.858284 228.291306,51.565716 
	222.589493,51.419430 217.033905,51.273144 211.332108,50.980572 205.776505,50.834286 
	200.513306,50.541714 195.250107,50.395428 190.133102,50.249142 185.308502,50.102856 
	180.922501,49.956570 176.682693,49.810287 172.735306,49.664001 169.372696,49.517715 
	166.302505,49.517715 163.817093,49.371429 161.770294,49.371429 160.308304,49.371429 
	160.893097,47.030857 161.916504,41.325714 162.647507,34.596573 162.208893,28.598858 
	283.847290,25.380571 "
	style="fill-opacity:1.0; fill-rule:evenodd; fill:thistle; stroke:none" />
<polygon points="158.407700,60.781715 
	160.162094,73.654854 160.454498,82.578285 160.162094,87.698288 159.869705,89.307426 
	160.162094,89.307426 161.185501,89.307426 162.647507,89.161140 164.694305,89.161140 
	167.325897,89.014854 170.396103,88.868568 173.904907,88.722282 177.706100,88.575996 
	181.945908,88.429718 186.478104,88.283432 191.302704,88.137146 196.273499,87.844574 
	201.536697,87.698288 206.946106,87.405716 212.501694,87.259430 218.057297,86.966858 
	223.612900,86.820572 229.168503,86.674286 234.870300,86.381714 240.279694,86.235428 
	245.689102,85.942856 250.806107,85.796570 255.923096,85.650284 260.601501,85.503998 
	265.133698,85.357712 269.373505,85.211426 273.174713,85.065140 276.537292,84.918854 
	279.607513,84.918854 282.092896,84.772568 284.139709,84.772568 285.601715,84.772568 
	285.309296,84.187431 284.724487,82.431999 283.847290,79.945145 282.823914,76.873146 
	281.800507,73.508568 281.069489,69.997711 280.630890,66.779427 280.630890,64.000000 
	158.407700,60.781715 "
	style="fill-opacity:1.0; fill-rule:evenodd; fill:thistle; stroke:none" />
<polygon points="162.355103,95.305145 
	162.062698,107.885712 161.039307,116.370285 159.869705,121.344002 159.284897,122.953140 
	159.577301,122.953140 160.600693,122.953140 162.062698,122.953140 164.109497,122.953140 
	166.741104,122.806854 169.811295,122.806854 173.320099,122.806854 177.121307,122.660568 
	181.361099,122.660568 185.893295,122.660568 190.717896,122.514282 195.688705,122.514282 
	200.951904,122.367996 206.215103,122.367996 211.770706,122.367996 217.326294,122.221718 
	222.881897,122.221718 228.583694,122.075432 234.139297,122.075432 239.548706,121.929146 
	244.958099,121.929146 250.221298,121.929146 255.192093,121.782860 260.016693,121.782860 
	264.402710,121.782860 268.642487,121.636574 272.443695,121.636574 275.952515,121.636574 
	278.876495,121.636574 281.508087,121.636574 283.554901,121.636574 285.016907,121.636574 
	285.016907,118.710854 285.163086,111.981712 285.455505,103.935997 286.478912,97.499428 
	162.355103,95.305145 "
	style="fill-opacity:1.0; fill-rule:evenodd; fill:silver; stroke:none" />
<polygon points="161.185501,128.950851 
	161.039307,140.800003 160.015900,148.845718 158.992493,153.380569 158.407700,154.843430 
	158.700104,154.843430 159.723495,154.843430 161.331696,154.697144 163.378494,154.697144 
	166.010101,154.697144 169.226501,154.550858 172.735306,154.404572 176.682693,154.404572 
	181.068695,154.258286 185.747101,154.112000 190.717896,153.965714 195.834900,153.819427 
	201.244293,153.673141 206.653702,153.673141 212.355499,153.526855 218.057297,153.380569 
	223.759094,153.234283 229.607101,153.087997 235.308899,152.941711 240.864502,152.795425 
	246.420105,152.649139 251.683304,152.502853 256.946503,152.356567 261.771088,152.356567 
	266.449493,152.210281 270.689301,152.063995 274.636688,152.063995 278.145508,152.063995 
	281.215698,151.917709 283.847290,151.917709 285.894104,151.917709 287.356110,151.917709 
	287.063690,151.332565 286.478912,149.577148 285.455505,147.090286 284.432098,144.164566 
	283.408691,140.800003 282.677704,137.435425 282.092896,134.217148 282.092896,131.584000 
	161.185501,128.950851 "
	style="fill-opacity:1.0; fill-rule:evenodd; fill:silver; stroke:none" />
<polygon points="283.847290,293.961151 
	283.993500,306.834290 285.163086,315.757721 286.186493,320.877716 286.771301,322.486847 
	286.478912,322.486847 285.455505,322.486847 283.993500,322.340576 281.800507,322.340576 
	279.315094,322.194275 276.244904,322.048004 272.736115,321.901703 268.788696,321.755432 
	264.548889,321.609131 260.016693,321.462860 255.192093,321.316559 250.075104,321.023987 
	244.811905,320.877716 239.402496,320.585144 233.846893,320.438843 228.291306,320.146271 
	222.589493,320.000000 217.033905,319.853729 211.332108,319.561157 205.776505,319.414856 
	200.513306,319.122284 195.250107,318.976013 190.133102,318.829712 185.308502,318.683441 
	180.922501,318.537140 176.682693,318.390869 172.735306,318.244568 169.372696,318.098297 
	166.302505,318.098297 163.817093,317.951996 161.770294,317.951996 160.308304,317.951996 
	160.893097,315.611420 161.916504,309.906281 162.647507,303.177155 162.208893,297.179443 
	283.847290,293.961151 "
	style="fill-opacity:1.0; fill-rule:evenodd; fill:lightsteelblue; stroke:none" />
<polygon points="158.407700,194.779434 
	160.162094,207.652573 160.454498,216.576004 160.162094,221.695999 159.869705,223.305145 
	174.343506,222.720001 187.062897,222.134857 198.174103,221.695999 207.530899,221.257141 
	215.425705,220.818283 222.004700,220.379425 227.414093,220.086853 231.507706,219.794281 
	234.724106,219.501709 236.917099,219.355423 238.379105,219.209137 239.256302,218.916565 
	239.402496,218.770279 239.110107,218.770279 238.525299,218.623993 237.648102,218.623993 
	236.770905,218.477707 235.747498,218.477707 235.016495,218.477707 234.285507,218.477707 
	233.993103,218.477707 234.285507,218.477707 235.016495,218.477707 236.332306,218.623993 
	238.525299,218.623993 241.741699,218.623993 245.835297,218.623993 251.098495,218.623993 
	257.531311,218.770279 265.426086,218.770279 274.636688,218.770279 285.601715,218.770279 
	285.309296,218.185150 284.724487,216.429718 283.847290,213.942856 282.823914,210.724579 
	281.800507,207.360001 281.069489,203.995422 280.630890,200.777145 280.630890,197.997711 
	158.407700,194.779434 "
	style="fill-opacity:1.0; fill-rule:evenodd; fill:lightsteelblue; stroke:none" />
<polygon points="162.355103,229.156570 
	162.062698,241.737137 161.039307,250.367996 159.869705,255.341721 159.284897,256.950867 
	159.577301,256.950867 160.600693,256.950867 162.062698,256.950867 164.109497,256.950867 
	166.741104,256.804565 169.811295,256.804565 173.320099,256.804565 177.121307,256.658295 
	181.361099,256.658295 185.893295,256.658295 190.717896,256.511993 195.688705,256.511993 
	200.951904,256.365723 206.215103,256.365723 211.770706,256.219421 217.326294,256.219421 
	222.881897,256.073151 228.583694,256.073151 234.139297,255.926865 239.548706,255.926865 
	244.958099,255.926865 250.221298,255.780579 255.192093,255.780579 260.016693,255.780579 
	264.402710,255.634293 268.642487,255.634293 272.443695,255.634293 275.952515,255.634293 
	278.876495,255.634293 281.508087,255.634293 283.554901,255.634293 285.016907,255.634293 
	285.016907,252.708572 285.163086,245.833145 285.455505,237.787430 286.478912,231.350861 
	162.355103,229.156570 "
	style="fill-opacity:1.0; fill-rule:evenodd; fill:lightsteelblue; stroke:none" />
<polygon points="162.355103,423.424011 
	162.062698,436.004578 161.039307,444.635437 159.869705,449.609131 159.284897,451.218292 
	159.577301,451.218292 160.600693,451.218292 162.062698,451.218292 164.109497,451.218292 
	166.741104,451.071991 169.811295,451.071991 173.320099,451.071991 177.121307,450.925720 
	181.361099,450.925720 185.893295,450.925720 190.717896,450.779419 195.688705,450.779419 
	200.951904,450.633148 206.215103,450.633148 211.770706,450.486847 217.326294,450.486847 
	222.881897,450.340576 228.583694,450.340576 234.139297,450.194275 239.548706,450.194275 
	244.958099,450.194275 250.221298,450.048004 255.192093,450.048004 260.016693,450.048004 
	264.402710,449.901703 268.642487,449.901703 272.443695,449.901703 275.952515,449.901703 
	278.876495,449.901703 281.508087,449.901703 283.554901,449.901703 285.016907,449.901703 
	285.016907,446.976013 285.163086,440.100586 285.455505,432.054871 286.478912,425.618286 
	162.355103,423.424011 "
	style="fill-opacity:1.0; fill-rule:evenodd; fill:thistle; stroke:none" />
<polygon points="162.355103,456.484558 
	162.355103,468.187439 162.062698,475.062866 161.477905,478.134857 161.185501,478.866272 
	161.477905,478.866272 162.501297,478.866272 163.963303,478.866272 166.010101,478.866272 
	168.495499,478.866272 171.565704,478.866272 174.928299,479.012573 178.729507,479.012573 
	182.823105,479.012573 187.355301,479.012573 192.033707,479.012573 197.004501,479.012573 
	202.121506,479.158844 207.384705,479.158844 212.794098,479.158844 218.349701,479.158844 
	223.759094,479.158844 229.314697,479.305145 234.724106,479.305145 240.133499,479.305145 
	245.396698,479.305145 250.659897,479.451416 255.484497,479.451416 260.309113,479.451416 
	264.695099,479.451416 268.788696,479.597717 272.589905,479.597717 275.952515,479.597717 
	279.022705,479.597717 281.508087,479.743988 283.554901,479.743988 285.016907,479.743988 
	285.016907,477.403442 285.163086,471.552002 285.455505,464.676575 286.478912,458.678864 
	162.355103,456.484558 "
	style="fill-opacity:1.0; fill-rule:evenodd; fill:thistle; stroke:none" />
<polygon points="162.355103,160.548569 
	162.062698,173.129150 161.039307,181.759995 159.869705,186.733719 159.284897,188.342850 
	159.577301,188.342850 160.600693,188.342850 162.062698,188.342850 164.109497,188.342850 
	166.741104,188.196579 169.811295,188.196579 173.320099,188.196579 177.121307,188.050293 
	181.361099,188.050293 185.893295,188.050293 190.717896,187.904007 195.688705,187.904007 
	200.951904,187.757721 206.215103,187.757721 211.770706,187.611435 217.326294,187.611435 
	222.881897,187.465149 228.583694,187.465149 234.139297,187.318863 239.548706,187.318863 
	244.958099,187.318863 250.221298,187.172577 255.192093,187.172577 260.016693,187.172577 
	264.402710,187.026291 268.642487,187.026291 272.443695,187.026291 275.952515,187.026291 
	278.876495,187.026291 281.508087,187.026291 283.554901,187.026291 285.016907,187.026291 
	285.016907,184.100571 285.163086,177.225143 285.455505,169.179428 286.478912,162.742859 
	162.355103,160.548569 "
	style="fill-opacity:1.0; fill-rule:evenodd; fill:silver; stroke:none" />
<polygon points="161.185501,262.802277 
	161.039307,274.651428 160.015900,282.697144 158.992493,287.231995 158.407700,288.694855 
	158.700104,288.694855 159.723495,288.694855 161.331696,288.694855 163.378494,288.548584 
	166.010101,288.548584 169.226501,288.402283 172.735306,288.402283 176.682693,288.256012 
	181.068695,288.109711 185.747101,287.963440 190.717896,287.963440 195.834900,287.817139 
	201.244293,287.670868 206.653702,287.524567 212.355499,287.378296 218.057297,287.231995 
	223.759094,287.085724 229.607101,286.939423 235.308899,286.793152 240.864502,286.793152 
	246.420105,286.646851 251.683304,286.500580 256.946503,286.354279 261.771088,286.354279 
	266.449493,286.208008 270.689301,286.061707 274.636688,286.061707 278.145508,286.061707 
	281.215698,285.915436 283.847290,285.915436 285.894104,285.915436 287.356110,285.915436 
	287.063690,285.330292 286.478912,283.574860 285.455505,281.088013 284.432098,278.162292 
	283.408691,274.797729 282.677704,271.433136 282.092896,268.214844 282.092896,265.581726 
	161.185501,262.802277 "
	style="fill-opacity:1.0; fill-rule:evenodd; fill:lightsteelblue; stroke:none" />
<polygon points="567.913879,186.441147 
	568.206299,199.314285 569.229675,208.237717 570.399292,213.357712 570.984070,214.966858 
	570.691711,214.966858 569.668274,214.966858 568.206299,214.820572 566.013306,214.820572 
	563.381714,214.674286 560.311523,214.528000 556.802673,214.381714 553.001526,214.235428 
	548.761719,214.089142 544.083313,213.942856 539.258728,213.796570 534.287903,213.503998 
	529.024719,213.357712 523.615295,213.065140 518.059692,212.918854 512.357910,212.626282 
	506.802307,212.479996 501.100494,212.333710 495.544891,212.041138 489.989288,211.894852 
	484.579895,211.602280 479.316711,211.455994 474.345886,211.309708 469.521301,211.163422 
	464.989105,211.017136 460.749298,210.870850 456.948090,210.724579 453.585510,210.578293 
	450.515289,210.578293 448.029907,210.432007 445.983093,210.432007 444.521088,210.432007 
	445.105896,208.091431 446.129303,202.386292 446.714111,195.657150 446.275513,189.659424 
	567.913879,186.441147 "
	style="fill-opacity:1.0; fill-rule:evenodd; fill:silver; stroke:none" />
<polygon points="442.474304,221.988571 
	444.374908,234.861710 444.667297,243.785141 444.228699,248.905136 443.936310,250.514282 
	444.228699,250.514282 445.252106,250.514282 446.714111,250.367996 448.760895,250.367996 
	451.392487,250.221710 454.462708,250.075424 457.971497,249.929138 461.772705,249.782852 
	466.012512,249.636566 470.544708,249.490280 475.369293,249.343994 480.486298,249.051422 
	485.603302,248.905136 491.012695,248.612564 496.568298,248.466293 502.123901,248.173721 
	507.825714,248.027435 513.381287,247.881149 518.936890,247.588577 524.492493,247.442291 
	529.755676,247.149719 535.018921,247.003433 539.989685,246.857147 544.814270,246.710861 
	549.346497,246.564575 553.440125,246.418289 557.241272,246.272003 560.750122,246.125717 
	563.674072,246.125717 566.159485,245.979431 568.206299,245.979431 569.668274,245.979431 
	569.375916,245.394287 568.791077,243.638855 567.913879,241.151993 566.890503,237.933716 
	566.013306,234.569138 565.136108,231.204575 564.697510,227.986282 564.697510,225.206863 
	442.474304,221.988571 "
	style="fill-opacity:1.0; fill-rule:evenodd; fill:lightsteelblue; stroke:none" />
<polygon points="446.421692,256.365723 
	446.275513,268.946289 445.252106,277.577148 444.082489,282.550842 443.497711,284.160004 
	443.790100,284.160004 444.813507,284.160004 446.275513,284.160004 448.322296,284.160004 
	450.953888,284.013702 454.024109,284.013702 457.532898,284.013702 461.334106,283.867432 
	465.573914,283.867432 470.106110,283.867432 474.784485,283.721130 479.901489,283.721130 
	485.164703,283.574860 490.427887,283.574860 495.983490,283.428558 501.539093,283.428558 
	507.094696,283.282288 512.650330,283.282288 518.352112,283.135986 523.761475,283.135986 
	529.170898,283.135986 534.287903,282.989716 539.258728,282.989716 544.083313,282.989716 
	548.615479,282.843414 552.709106,282.843414 556.656494,282.843414 560.019104,282.843414 
	563.089294,282.843414 565.574707,282.843414 567.621521,282.843414 569.083496,282.843414 
	569.083496,279.917725 569.229675,273.042297 569.668274,264.996582 570.691711,258.559998 
	446.421692,256.365723 "
	style="fill-opacity:1.0; fill-rule:evenodd; fill:lightsteelblue; stroke:none" />
<polygon points="445.398285,290.011414 
	445.252106,301.860565 444.228699,309.906281 443.205292,314.441132 442.620514,315.903992 
	442.912903,315.903992 443.936310,315.903992 445.544495,315.903992 447.591309,315.757721 
	450.222900,315.757721 453.439301,315.611420 456.948090,315.611420 460.895508,315.465149 
	465.281494,315.318848 469.959900,315.172577 474.784485,315.172577 480.047699,315.026276 
	485.310913,314.880005 490.866486,314.733704 496.422089,314.587433 502.270111,314.441132 
	507.971893,314.294861 513.673706,314.148560 519.375488,314.002289 525.077271,314.002289 
	530.486694,313.855988 535.896118,313.709717 541.013123,313.563416 545.837708,313.563416 
	550.516113,313.417145 554.755920,313.270844 558.703308,313.270844 562.212097,313.270844 
	565.282288,313.124573 567.913879,313.124573 569.960693,313.124573 571.422729,313.124573 
	571.130310,312.539429 570.545471,310.783997 569.522095,308.297150 568.498718,305.371429 
	567.475281,302.006866 566.744324,298.642273 566.159485,295.424011 566.159485,292.790863 
	445.398285,290.011414 "
	style="fill-opacity:1.0; fill-rule:evenodd; fill:lightsteelblue; stroke:none" />
<polygon points="567.913879,454.875427 
	568.206299,467.748566 569.229675,476.671997 570.399292,481.791992 570.984070,483.401154 
	570.691711,483.401154 569.668274,483.401154 568.206299,483.254852 566.013306,483.254852 
	563.381714,483.108582 560.311523,482.962280 556.802673,482.816010 553.001526,482.669708 
	548.761719,482.523438 544.083313,482.377136 539.258728,482.230865 534.287903,481.938293 
	529.024719,481.791992 523.615295,481.499420 518.059692,481.353149 512.357910,481.060577 
	506.802307,480.914276 501.100494,480.768005 495.544891,480.475433 489.989288,480.329132 
	484.579895,480.036560 479.316711,479.890289 474.345886,479.743988 469.521301,479.597717 
	464.989105,479.451416 460.749298,479.305145 456.948090,479.158844 453.585510,479.012573 
	450.515289,479.012573 448.029907,478.866272 445.983093,478.866272 444.521088,478.866272 
	445.105896,476.525726 446.129303,470.966858 446.714111,464.237701 446.275513,458.239990 
	567.913879,454.875427 "
	style="fill-opacity:1.0; fill-rule:evenodd; fill:thistle; stroke:none" />
<polygon points="442.474304,355.693726 
	444.374908,368.566864 444.667297,377.490295 444.228699,382.610291 443.936310,384.219421 
	458.410095,383.634277 471.129486,383.049133 482.240692,382.610291 491.597504,382.171417 
	499.638489,381.732574 506.217499,381.293701 511.480713,381.001129 515.720520,380.708557 
	518.790710,380.415985 521.129883,380.269714 522.591919,380.123444 523.322876,379.830872 
	523.469116,379.684570 523.322876,379.684570 522.591919,379.538300 521.860901,379.538300 
	520.837524,379.391998 519.960327,379.391998 519.083130,379.391998 518.498291,379.391998 
	518.205872,379.391998 518.352112,379.391998 519.083130,379.391998 520.398926,379.538300 
	522.591919,379.538300 525.808289,379.538300 529.901917,379.538300 535.165100,379.538300 
	541.597900,379.684570 549.492676,379.684570 558.703308,379.684570 569.668274,379.684570 
	569.375916,379.099426 568.791077,377.343994 567.913879,374.857147 566.890503,371.638855 
	566.013306,368.274292 565.136108,364.909729 564.697510,361.691437 564.697510,358.911987 
	442.474304,355.693726 "
	style="fill-opacity:1.0; fill-rule:evenodd; fill:silver; stroke:none" />
<polygon points="446.421692,390.070862 
	446.275513,402.651428 445.252106,411.282288 444.082489,416.256012 443.497711,417.865143 
	443.790100,417.865143 444.813507,417.865143 446.275513,417.865143 448.322296,417.865143 
	450.953888,417.718872 454.024109,417.718872 457.532898,417.718872 461.334106,417.572571 
	465.573914,417.572571 470.106110,417.572571 474.784485,417.426300 479.901489,417.426300 
	485.164703,417.279999 490.427887,417.279999 495.983490,417.133728 501.539093,417.133728 
	507.094696,416.987427 512.650330,416.987427 518.352112,416.841156 523.761475,416.841156 
	529.170898,416.841156 534.287903,416.694855 539.258728,416.694855 544.083313,416.694855 
	548.615479,416.548584 552.709106,416.548584 556.656494,416.548584 560.019104,416.548584 
	563.089294,416.548584 565.574707,416.548584 567.621521,416.548584 569.083496,416.548584 
	569.083496,413.622864 569.229675,406.747437 569.668274,398.701721 570.691711,392.411438 
	446.421692,390.070862 "
	style="fill-opacity:1.0; fill-rule:evenodd; fill:thistle; stroke:none" />
<polygon points="446.421692,321.755432 
	446.275513,334.189728 445.252106,342.674286 444.082489,347.648010 443.497711,349.257141 
	443.790100,349.257141 444.813507,349.257141 446.275513,349.257141 448.322296,349.257141 
	450.953888,349.110870 454.024109,349.110870 457.532898,349.110870 461.334106,348.964569 
	465.573914,348.964569 470.106110,348.964569 474.784485,348.818298 479.901489,348.818298 
	485.164703,348.671997 490.427887,348.671997 495.983490,348.671997 501.539093,348.525726 
	507.094696,348.525726 512.650330,348.379425 518.352112,348.379425 523.761475,348.233154 
	529.170898,348.233154 534.287903,348.233154 539.258728,348.086853 544.083313,348.086853 
	548.615479,348.086853 552.709106,347.940582 556.656494,347.940582 560.019104,347.940582 
	563.089294,347.940582 565.574707,347.940582 567.621521,347.940582 569.083496,347.940582 
	569.083496,345.014862 569.229675,338.285706 569.668274,330.386292 570.691711,323.949707 
	446.421692,321.755432 "
	style="fill-opacity:1.0; fill-rule:evenodd; fill:silver; stroke:none" />
<polygon points="445.398285,423.862854 
	445.252106,435.712006 444.228699,443.611420 443.205292,448.146271 442.620514,449.609131 
	442.912903,449.609131 443.936310,449.609131 445.544495,449.609131 447.591309,449.462860 
	450.222900,449.462860 453.439301,449.316559 456.948090,449.316559 460.895508,449.170288 
	465.281494,449.023987 469.959900,448.877716 474.784485,448.877716 480.047699,448.731415 
	485.310913,448.585144 490.866486,448.438843 496.422089,448.292572 502.270111,448.146271 
	507.971893,448.000000 513.673706,447.853729 519.375488,447.707428 525.077271,447.707428 
	530.486694,447.561157 535.896118,447.414856 541.013123,447.268585 545.837708,447.268585 
	550.516113,447.122284 554.755920,446.976013 558.703308,446.976013 562.212097,446.976013 
	565.282288,446.829712 567.913879,446.829712 569.960693,446.829712 571.422729,446.829712 
	571.130310,446.244568 570.545471,444.489136 569.522095,442.002289 568.498718,439.076569 
	567.475281,435.712006 566.744324,432.347443 566.159485,429.129150 566.159485,426.496002 
	445.398285,423.862854 "
	style="fill-opacity:1.0; fill-rule:evenodd; fill:thistle; stroke:none" />
<polygon points="283.847290,392.996582 
	283.993500,405.869720 285.163086,414.793152 286.186493,419.913147 286.771301,421.522278 
	286.478912,421.522278 285.455505,421.522278 283.993500,421.376007 281.800507,421.376007 
	279.315094,421.229706 276.244904,421.083435 272.736115,420.937134 268.788696,420.790863 
	264.548889,420.644562 260.016693,420.498291 255.192093,420.351990 250.075104,420.059418 
	244.811905,419.913147 239.402496,419.620575 233.846893,419.474274 228.291306,419.181702 
	222.589493,419.035431 217.033905,418.889130 211.332108,418.596558 205.776505,418.450287 
	200.513306,418.157715 195.250107,418.011414 190.133102,417.865143 185.308502,417.718872 
	180.922501,417.572571 176.682693,417.426300 172.735306,417.279999 169.372696,417.133728 
	166.302505,417.133728 163.817093,416.987427 161.770294,416.987427 160.308304,416.987427 
	160.893097,414.646851 161.916504,409.088013 162.647507,402.358856 162.208893,396.361145 
	283.847290,392.996582 "
	style="fill-opacity:1.0; fill-rule:evenodd; fill:thistle; stroke:none" />
<polygon points="162.355103,327.606842 
	162.062698,340.041138 161.039307,348.671997 159.869705,353.645721 159.284897,355.254852 
	159.577301,355.254852 160.600693,355.254852 162.062698,355.254852 164.109497,355.254852 
	166.741104,355.108582 169.811295,355.108582 173.320099,355.108582 177.121307,354.962280 
	181.361099,354.962280 185.893295,354.816010 190.717896,354.816010 195.688705,354.816010 
	200.951904,354.669708 206.215103,354.669708 211.770706,354.523438 217.326294,354.523438 
	222.881897,354.377136 228.583694,354.377136 234.139297,354.230865 239.548706,354.230865 
	244.958099,354.084564 250.221298,354.084564 255.192093,353.938293 260.016693,353.938293 
	264.402710,353.938293 268.642487,353.938293 272.443695,353.791992 275.952515,353.791992 
	278.876495,353.791992 281.508087,353.791992 283.554901,353.791992 285.016907,353.791992 
	285.016907,350.866272 285.163086,344.137146 285.455505,336.091431 286.478912,329.801147 
	162.355103,327.606842 "
	style="fill-opacity:1.0; fill-rule:evenodd; fill:silver; stroke:none" />
<polygon points="567.913879,119.734856 
	568.206299,132.608002 569.229675,141.385147 570.399292,146.651428 570.984070,148.260574 
	570.691711,148.260574 569.668274,148.260574 568.206299,148.114288 566.013306,148.114288 
	563.381714,147.968002 560.311523,147.821716 556.802673,147.675430 553.001526,147.529144 
	548.761719,147.382858 544.083313,147.236572 539.258728,147.090286 534.287903,146.797714 
	529.024719,146.651428 523.615295,146.358856 518.059692,146.212570 512.357910,145.919998 
	506.802307,145.773712 501.100494,145.627426 495.544891,145.334854 489.989288,145.188568 
	484.579895,144.895996 479.316711,144.749710 474.345886,144.603424 469.521301,144.457138 
	464.989105,144.310852 460.749298,144.164566 456.948090,144.018280 453.585510,143.871994 
	450.515289,143.871994 448.029907,143.725708 445.983093,143.725708 444.521088,143.725708 
	445.105896,141.385147 446.129303,135.679993 446.714111,128.950851 446.275513,122.953140 
	567.913879,119.734856 "
	style="fill-opacity:1.0; fill-rule:evenodd; fill:silver; stroke:none" />
<polygon points="446.421692,54.930286 
	446.275513,67.510857 445.252106,75.995430 444.082489,80.969139 443.497711,82.578285 
	443.790100,82.578285 444.813507,82.578285 446.275513,82.578285 448.322296,82.578285 
	450.953888,82.431999 454.024109,82.431999 457.532898,82.431999 461.334106,82.285713 
	465.573914,82.285713 470.106110,82.285713 474.784485,82.139427 479.901489,82.139427 
	485.164703,81.993141 490.427887,81.993141 495.983490,81.993141 501.539093,81.846855 
	507.094696,81.846855 512.650330,81.700569 518.352112,81.700569 523.761475,81.554283 
	529.170898,81.554283 534.287903,81.554283 539.258728,81.407997 544.083313,81.407997 
	548.615479,81.407997 552.709106,81.261711 556.656494,81.261711 560.019104,81.261711 
	563.089294,81.261711 565.574707,81.261711 567.621521,81.261711 569.083496,81.261711 
	569.083496,78.335999 569.229675,71.606857 569.668274,63.561142 570.691711,57.124573 
	446.421692,54.930286 "
	style="fill-opacity:1.0; fill-rule:evenodd; fill:thistle; stroke:none" />
<polygon points="445.398285,88.575996 
	445.252106,100.425140 444.228699,108.470856 443.205292,113.005714 442.620514,114.468575 
	442.912903,114.468575 443.936310,114.468575 445.544495,114.322289 447.591309,114.322289 
	450.222900,114.322289 453.439301,114.176003 456.948090,114.029716 460.895508,114.029716 
	465.281494,113.883430 469.959900,113.737144 474.784485,113.590858 480.047699,113.444572 
	485.310913,113.298286 490.866486,113.298286 496.422089,113.152000 502.270111,113.005714 
	507.971893,112.859428 513.673706,112.713142 519.375488,112.566856 525.077271,112.420570 
	530.486694,112.274284 535.896118,112.127998 541.013123,111.981712 545.837708,111.981712 
	550.516113,111.835426 554.755920,111.689140 558.703308,111.689140 562.212097,111.689140 
	565.282288,111.542854 567.913879,111.542854 569.960693,111.542854 571.422729,111.542854 
	571.130310,110.957718 570.545471,109.202286 569.522095,106.715431 568.498718,103.789711 
	567.475281,100.425140 566.744324,97.060570 566.159485,93.842285 566.159485,91.209145 
	445.398285,88.575996 "
	style="fill-opacity:1.0; fill-rule:evenodd; fill:silver; stroke:none" />
<polygon points="446.421692,153.234283 
	446.275513,165.814850 445.252106,174.445709 444.082489,179.419434 443.497711,181.028564 
	443.790100,181.028564 444.813507,181.028564 446.275513,181.028564 448.322296,181.028564 
	450.953888,180.882278 454.024109,180.882278 457.532898,180.882278 461.334106,180.735992 
	465.573914,180.735992 470.106110,180.735992 474.784485,180.589722 479.901489,180.589722 
	485.164703,180.443436 490.427887,180.443436 495.983490,180.443436 501.539093,180.297150 
	507.094696,180.297150 512.650330,180.150864 518.352112,180.150864 523.761475,180.004578 
	529.170898,180.004578 534.287903,180.004578 539.258728,179.858292 544.083313,179.858292 
	548.615479,179.858292 552.709106,179.712006 556.656494,179.712006 560.019104,179.712006 
	563.089294,179.712006 565.574707,179.712006 567.621521,179.712006 569.083496,179.712006 
	569.083496,176.786285 569.229675,169.910858 569.668274,161.865143 570.691711,155.574860 
	446.421692,153.234283 "
	style="fill-opacity:1.0; fill-rule:evenodd; fill:silver; stroke:none" />
<polygon points="161.185501,361.984009 
	161.039307,373.833130 160.015900,381.732574 158.992493,386.267426 158.407700,387.730286 
	158.700104,387.730286 159.723495,387.730286 161.331696,387.730286 163.378494,387.584015 
	166.010101,387.584015 169.226501,387.437714 172.735306,387.437714 176.682693,387.291443 
	181.068695,387.145142 185.747101,386.998871 190.717896,386.998871 195.834900,386.852570 
	201.244293,386.706299 206.653702,386.559998 212.355499,386.413727 218.057297,386.267426 
	223.759094,386.121155 229.607101,385.974854 235.308899,385.828583 240.864502,385.828583 
	246.420105,385.682281 251.683304,385.536011 256.946503,385.389709 261.771088,385.389709 
	266.449493,385.243439 270.689301,385.097137 274.636688,385.097137 278.145508,385.097137 
	281.215698,384.950867 283.847290,384.950867 285.894104,384.950867 287.356110,384.950867 
	287.063690,384.365723 286.478912,382.610291 285.455505,380.123444 284.432098,377.197723 
	283.408691,373.833130 282.677704,370.468567 282.092896,367.250275 282.092896,364.617157 
	161.185501,361.984009 "
	style="fill-opacity:1.0; fill-rule:evenodd; fill:silver; stroke:none" />
<polygon points="427.123291,249.490280 
	427.415710,262.363434 428.439087,271.140564 429.608704,276.406860 430.193512,278.015991 
	429.901093,278.015991 428.877686,278.015991 427.415710,277.869720 425.222687,277.869720 
	422.737305,277.723419 419.667114,277.577148 416.158295,277.430847 412.210907,277.284576 
	407.971100,277.138275 403.438904,276.992004 398.614288,276.845703 393.497314,276.553131 
	388.234100,276.406860 382.824707,276.114288 377.269104,275.967987 371.713501,275.675415 
	366.011688,275.529144 360.456085,275.382843 354.754303,275.090271 349.344910,274.944000 
	343.935486,274.651428 338.672302,274.505157 333.701508,274.358856 328.876892,274.212585 
	324.344696,274.066284 320.104889,273.920013 316.303711,273.773712 312.941101,273.627441 
	309.870911,273.627441 307.385498,273.481140 305.338715,273.481140 303.876709,273.481140 
	304.461487,271.140564 305.484894,265.435425 306.069702,258.706299 305.631104,252.708572 
	427.123291,249.490280 "
	style="fill-opacity:1.0; fill-rule:evenodd; fill:lightsteelblue; stroke:none" />
<polygon points="301.976105,284.891418 
	303.730499,297.764557 304.022888,306.687988 303.584290,311.808014 303.291901,313.417145 
	303.584290,313.417145 304.607697,313.417145 306.069702,313.270844 308.116486,313.270844 
	310.748108,313.124573 313.818298,312.978271 317.327087,312.832001 321.128296,312.685699 
	325.368103,312.539429 329.900299,312.393158 334.724915,312.246857 339.695709,311.954285 
	344.958893,311.808014 350.368286,311.515442 355.923889,311.369141 361.479492,311.076569 
	367.035095,310.930298 372.590698,310.783997 378.146301,310.491425 383.701904,310.345154 
	389.111298,310.052582 394.228302,309.906281 399.199097,309.760010 404.023712,309.613708 
	408.555908,309.467438 412.649506,309.321136 416.450714,309.174866 419.959503,309.028564 
	422.883514,309.028564 425.368896,308.882294 427.415710,308.882294 428.877686,308.882294 
	428.585297,308.297150 428.000488,306.541718 427.123291,304.054871 426.099915,300.836578 
	425.222687,297.471985 424.345490,294.107422 423.906891,290.889130 423.906891,288.109711 
	301.976105,284.891418 "
	style="fill-opacity:1.0; fill-rule:evenodd; fill:lightsteelblue; stroke:none" />
<polygon points="305.777313,319.414856 
	305.631104,331.849152 304.607697,340.333710 303.438110,345.307434 302.853302,346.916565 
	303.145691,346.916565 304.169098,346.916565 305.631104,346.916565 307.677887,346.916565 
	310.309509,346.770294 313.379700,346.770294 316.742310,346.770294 320.689697,346.623993 
	324.929504,346.623993 329.315491,346.623993 334.140106,346.477722 339.257111,346.477722 
	344.374115,346.331421 349.783508,346.331421 355.192902,346.331421 360.748505,346.185150 
	366.450287,346.185150 372.005890,346.038849 377.561493,346.038849 382.970886,345.892578 
	388.380310,345.892578 393.497314,345.892578 398.614288,345.746277 403.292694,345.746277 
	407.824890,345.746277 412.064697,345.600006 415.865906,345.600006 419.228485,345.600006 
	422.298706,345.600006 424.784088,345.600006 426.830902,345.600006 428.292908,345.600006 
	428.292908,342.674286 428.439087,335.945129 428.877686,327.899414 429.901093,321.609131 
	305.777313,319.414856 "
	style="fill-opacity:1.0; fill-rule:evenodd; fill:silver; stroke:none" />
<polygon points="304.753906,352.914276 
	304.607697,364.763428 303.584290,372.809143 302.560913,377.197723 301.976105,378.660583 
	302.268494,378.660583 303.291901,378.660583 304.900085,378.660583 306.946899,378.514282 
	309.578491,378.514282 312.794891,378.368011 316.303711,378.368011 320.251099,378.221710 
	324.637085,378.075439 329.315491,377.929138 334.140106,377.929138 339.257111,377.782867 
	344.666504,377.636566 350.222107,377.490295 355.777710,377.343994 361.479492,377.197723 
	367.327515,377.051422 373.029297,376.905151 378.731110,376.758850 384.286713,376.758850 
	389.842285,376.612579 395.105499,376.466278 400.222504,376.320007 405.193298,376.320007 
	409.725494,376.173706 413.965302,376.027435 417.912689,376.027435 421.421509,376.027435 
	424.491699,375.881134 427.123291,375.881134 429.170105,375.881134 430.632111,375.881134 
	430.339691,375.295990 429.754913,373.540558 428.731506,371.053711 427.708099,368.127991 
	426.684692,364.763428 425.953705,361.398865 425.368896,358.180573 425.368896,355.547424 
	304.753906,352.914276 "
	style="fill-opacity:1.0; fill-rule:evenodd; fill:silver; stroke:none" />
<polygon points="427.123291,58.148571 
	427.415710,71.021713 428.439087,79.945145 429.608704,85.065140 430.193512,86.674286 
	429.901093,86.674286 428.877686,86.674286 427.415710,86.528000 425.222687,86.528000 
	422.737305,86.381714 419.667114,86.235428 416.158295,86.089142 412.210907,85.942856 
	407.971100,85.796570 403.438904,85.650284 398.614288,85.503998 393.497314,85.211426 
	388.234100,85.065140 382.824707,84.772568 377.269104,84.626289 371.713501,84.333717 
	366.011688,84.187431 360.456085,84.041145 354.754303,83.748573 349.344910,83.602287 
	343.935486,83.309715 338.672302,83.163429 333.701508,83.017143 328.876892,82.870857 
	324.344696,82.724571 320.104889,82.578285 316.303711,82.431999 312.941101,82.285713 
	309.870911,82.285713 307.385498,82.139427 305.338715,82.139427 303.876709,82.139427 
	304.461487,79.798859 305.484894,74.093712 306.069702,67.364571 305.631104,61.366856 
	427.123291,58.148571 "
	style="fill-opacity:1.0; fill-rule:evenodd; fill:thistle; stroke:none" />
<polygon points="301.976105,418.742859 
	303.730499,431.615997 304.022888,440.393158 303.584290,445.659424 303.291901,447.268585 
	317.765686,446.683441 330.485107,446.098297 341.596313,445.659424 350.953094,445.220581 
	358.847900,444.781708 365.426910,444.342865 370.836304,444.050293 374.929901,443.757721 
	378.146301,443.465149 380.339294,443.318848 381.801300,443.172577 382.532288,442.880005 
	382.824707,442.733704 382.532288,442.733704 381.947510,442.587433 381.070312,442.587433 
	380.193115,442.441132 379.169708,442.441132 378.292511,442.441132 377.707703,442.441132 
	377.415314,442.441132 377.561493,442.441132 378.292511,442.441132 379.754486,442.587433 
	381.947510,442.587433 385.017700,442.587433 389.111298,442.587433 394.374512,442.587433 
	400.807312,442.733704 408.702087,442.733704 418.058899,442.733704 428.877686,442.733704 
	428.585297,442.148560 428.000488,440.393158 427.123291,437.906281 426.099915,434.687988 
	425.222687,431.323425 424.345490,427.958862 423.906891,424.740570 423.906891,421.961151 
	301.976105,418.742859 "
	style="fill-opacity:1.0; fill-rule:evenodd; fill:thistle; stroke:none" />
<polygon points="305.777313,453.119995 
	305.631104,465.700562 304.607697,474.331421 303.438110,479.305145 302.853302,480.914276 
	303.145691,480.914276 304.169098,480.914276 305.631104,480.914276 307.677887,480.914276 
	310.309509,480.768005 313.379700,480.768005 316.742310,480.768005 320.689697,480.621704 
	324.929504,480.621704 329.315491,480.621704 334.140106,480.475433 339.257111,480.475433 
	344.374115,480.329132 349.783508,480.329132 355.192902,480.182861 360.748505,480.182861 
	366.450287,480.036560 372.005890,480.036560 377.561493,479.890289 382.970886,479.890289 
	388.380310,479.890289 393.497314,479.743988 398.614288,479.743988 403.292694,479.743988 
	407.824890,479.597717 412.064697,479.597717 415.865906,479.597717 419.228485,479.597717 
	422.298706,479.597717 424.784088,479.597717 426.830902,479.597717 428.292908,479.597717 
	428.292908,476.671997 428.439087,469.796570 428.877686,461.750854 429.901093,455.314301 
	305.777313,453.119995 "
	style="fill-opacity:1.0; fill-rule:evenodd; fill:thistle; stroke:none" />
<polygon points="305.777313,187.757721 
	305.631104,200.338287 304.607697,208.969147 303.438110,213.942856 302.853302,215.552002 
	303.145691,215.552002 304.169098,215.552002 305.631104,215.552002 307.677887,215.552002 
	310.309509,215.405716 313.379700,215.405716 316.742310,215.405716 320.689697,215.259430 
	324.929504,215.259430 329.315491,215.259430 334.140106,215.113144 339.257111,215.113144 
	344.374115,214.966858 349.783508,214.966858 355.192902,214.820572 360.748505,214.820572 
	366.450287,214.674286 372.005890,214.674286 377.561493,214.528000 382.970886,214.528000 
	388.380310,214.528000 393.497314,214.381714 398.614288,214.381714 403.292694,214.381714 
	407.824890,214.235428 412.064697,214.235428 415.865906,214.235428 419.228485,214.235428 
	422.298706,214.235428 424.784088,214.235428 426.830902,214.235428 428.292908,214.235428 
	428.292908,211.309708 428.439087,204.434280 428.877686,196.388565 429.901093,189.951996 
	305.777313,187.757721 "
	style="fill-opacity:1.0; fill-rule:evenodd; fill:silver; stroke:none" />
<polygon points="305.777313,220.818283 
	305.923492,232.521149 305.484894,239.396576 305.046295,242.468567 304.753906,243.199997 
	305.046295,243.199997 306.069702,243.199997 307.531708,243.199997 309.578491,243.199997 
	312.063904,243.199997 315.134094,243.199997 318.496704,243.346283 322.297913,243.346283 
	326.391510,243.346283 330.777496,243.346283 335.602112,243.346283 340.426697,243.346283 
	345.543701,243.492569 350.953094,243.492569 356.216309,243.492569 361.771912,243.492569 
	367.327515,243.492569 372.736908,243.638855 378.292511,243.638855 383.555695,243.638855 
	388.818909,243.638855 393.935913,243.785141 398.906708,243.785141 403.585114,243.785141 
	408.117310,243.785141 412.210907,243.931427 416.012085,243.931427 419.374695,243.931427 
	422.298706,243.931427 424.784088,244.077713 426.830902,244.077713 428.292908,244.077713 
	428.292908,241.737137 428.439087,235.885712 428.877686,229.010284 429.901093,223.012573 
	305.777313,220.818283 "
	style="fill-opacity:1.0; fill-rule:evenodd; fill:lightsteelblue; stroke:none" />
<polygon points="305.777313,384.511993 
	305.631104,397.092560 304.607697,405.723419 303.438110,410.697144 302.853302,412.306274 
	303.145691,412.306274 304.169098,412.306274 305.631104,412.306274 307.677887,412.306274 
	310.309509,412.160004 313.379700,412.160004 316.742310,412.160004 320.689697,412.013702 
	324.929504,412.013702 329.315491,412.013702 334.140106,411.867432 339.257111,411.867432 
	344.374115,411.721130 349.783508,411.721130 355.192902,411.574860 360.748505,411.574860 
	366.450287,411.428558 372.005890,411.428558 377.561493,411.282288 382.970886,411.282288 
	388.380310,411.282288 393.497314,411.135986 398.614288,411.135986 403.292694,411.135986 
	407.824890,410.989716 412.064697,410.989716 415.865906,410.989716 419.228485,410.989716 
	422.298706,410.989716 424.784088,410.989716 426.830902,410.989716 428.292908,410.989716 
	428.292908,408.063995 428.439087,401.188568 428.877686,393.142853 429.901093,386.706299 
	305.777313,384.511993 "
	style="fill-opacity:1.0; fill-rule:evenodd; fill:silver; stroke:none" />
<polygon points="304.753906,26.989714 
	304.607697,38.838856 303.584290,46.884571 302.560913,51.419430 301.976105,52.882286 
	302.268494,52.882286 303.291901,52.882286 304.900085,52.882286 306.946899,52.736000 
	309.578491,52.736000 312.794891,52.589714 316.303711,52.589714 320.251099,52.443428 
	324.637085,52.297142 329.315491,52.150856 334.140106,52.150856 339.257111,52.004570 
	344.666504,51.858284 350.222107,51.712002 355.777710,51.565716 361.479492,51.419430 
	367.327515,51.273144 373.029297,51.126858 378.731110,50.980572 384.286713,50.980572 
	389.842285,50.834286 395.105499,50.688000 400.222504,50.541714 405.193298,50.541714 
	409.725494,50.395428 413.965302,50.249142 417.912689,50.249142 421.421509,50.249142 
	424.491699,50.102856 427.123291,50.102856 429.170105,50.102856 430.632111,50.102856 
	430.339691,49.517715 429.754913,47.762287 428.731506,45.275429 427.708099,42.349716 
	426.684692,38.985142 425.953705,35.620571 425.368896,32.402287 425.368896,29.769142 
	304.753906,26.989714 "
	style="fill-opacity:1.0; fill-rule:evenodd; fill:thistle; stroke:none" />
<polygon points="427.123291,157.476578 
	427.415710,170.349716 428.439087,179.126862 429.608704,184.246857 430.193512,185.856003 
	429.901093,185.856003 428.877686,185.856003 427.415710,185.709717 425.222687,185.709717 
	422.737305,185.563431 419.667114,185.417145 416.158295,185.270859 412.210907,185.124573 
	407.971100,184.978287 403.438904,184.832001 398.614288,184.685715 393.497314,184.539429 
	388.234100,184.246857 382.824707,184.100571 377.269104,183.807999 371.713501,183.661713 
	366.011688,183.515427 360.456085,183.222855 354.754303,183.076569 349.344910,182.783997 
	343.935486,182.637711 338.672302,182.491425 333.701508,182.345139 328.876892,182.198853 
	324.344696,182.052567 320.104889,181.906281 316.303711,181.759995 312.941101,181.613708 
	309.870911,181.613708 307.385498,181.467422 305.338715,181.467422 303.876709,181.467422 
	304.461487,179.126862 305.484894,173.421707 306.069702,166.692566 305.631104,160.694855 
	427.123291,157.476578 "
	style="fill-opacity:1.0; fill-rule:evenodd; fill:silver; stroke:none" />
<polygon points="569.375916,22.601143 
	569.522095,35.474285 570.545471,44.397713 571.715088,49.517715 572.299927,51.126858 
	572.007507,51.126858 570.984070,51.126858 569.522095,50.980572 567.329102,50.980572 
	564.843689,50.834286 561.773499,50.688000 558.264709,50.541714 554.317322,50.395428 
	550.077515,50.249142 545.545288,50.102856 540.720703,49.956570 535.603699,49.664001 
	530.340515,49.517715 524.931091,49.225143 519.375488,49.078857 513.819885,48.786285 
	508.118103,48.639999 502.562500,48.493713 496.860687,48.201141 491.305115,48.054855 
	486.041901,47.762287 480.778687,47.616001 475.661713,47.469715 470.837097,47.323429 
	466.451111,47.177143 462.211304,47.030857 458.263885,46.884571 454.901306,46.738285 
	451.831085,46.738285 449.345703,46.591999 447.298889,46.591999 445.836914,46.591999 
	446.421692,44.251427 447.445099,38.692570 448.029907,31.817142 447.591309,25.819429 
	569.375916,22.601143 "
	style="fill-opacity:1.0; fill-rule:evenodd; fill:thistle; stroke:none" />
<polygon points="305.777313,91.794289 
	305.631104,104.374855 304.607697,113.005714 303.438110,117.979431 302.853302,119.588570 
	303.145691,119.588570 304.169098,119.588570 305.631104,119.588570 307.677887,119.588570 
	310.309509,119.442284 313.379700,119.442284 316.742310,119.442284 320.689697,119.295998 
	324.929504,119.295998 329.315491,119.295998 334.140106,119.149712 339.257111,119.149712 
	344.374115,119.003426 349.783508,119.003426 355.192902,118.857140 360.748505,118.857140 
	366.450287,118.710854 372.005890,118.710854 377.561493,118.564575 382.970886,118.564575 
	388.380310,118.564575 393.497314,118.418289 398.614288,118.418289 403.292694,118.418289 
	407.824890,118.272003 412.064697,118.272003 415.865906,118.272003 419.228485,118.272003 
	422.298706,118.272003 424.784088,118.272003 426.830902,118.272003 428.292908,118.272003 
	428.292908,115.346283 428.439087,108.470856 428.877686,100.425140 429.901093,93.988571 
	305.777313,91.794289 "
	style="fill-opacity:1.0; fill-rule:evenodd; fill:silver; stroke:none" />
<polygon points="304.753906,126.317711 
	304.607697,138.166855 303.584290,146.212570 302.560913,150.601135 301.976105,152.063995 
	302.268494,152.063995 303.291901,152.063995 304.900085,152.063995 306.946899,151.917709 
	309.578491,151.917709 312.794891,151.771423 316.303711,151.771423 320.251099,151.625137 
	324.637085,151.478851 329.315491,151.332565 334.140106,151.332565 339.257111,151.186279 
	344.666504,151.039993 350.222107,150.893707 355.777710,150.747421 361.479492,150.601135 
	367.327515,150.454865 373.029297,150.308578 378.731110,150.162292 384.286713,150.162292 
	389.842285,150.016006 395.105499,149.869720 400.222504,149.723434 405.193298,149.723434 
	409.725494,149.577148 413.965302,149.430862 417.912689,149.430862 421.421509,149.430862 
	424.491699,149.284576 427.123291,149.284576 429.170105,149.284576 430.632111,149.284576 
	430.339691,148.699432 429.754913,146.944000 428.731506,144.457138 427.708099,141.531433 
	426.684692,138.166855 425.953705,134.802292 425.368896,131.584000 425.368896,128.950851 
	304.753906,126.317711 "
	style="fill-opacity:1.0; fill-rule:evenodd; fill:silver; stroke:none" />
</svg>
